<svg width="14" height="10" viewBox="0 0 14 10" fill="none" xmlns="http://www.w3.org/2000/svg">
<path fill-rule="evenodd" clip-rule="evenodd" d="M6.65356 9.49286C6.38137 9.80508 5.90761 9.83753 5.59538 9.56534L1.00715 5.56534C0.84377 5.42291 0.75 5.21676 0.75 5.00001C0.75 4.78326 0.84377 4.57711 1.00715 4.43468L5.59538 0.434681C5.90761 0.162487 6.38137 0.194936 6.65356 0.50716C6.92576 0.819382 6.89331 1.29315 6.58109 1.56534L3.50161 4.25001L12.5 4.25001C12.9142 4.25001 13.25 4.5858 13.25 5.00001C13.25 5.41422 12.9142 5.75001 12.5 5.75001L3.50161 5.75001L6.58109 8.43468C6.89331 8.70687 6.92576 9.18064 6.65356 9.49286Z" fill="#3381F3"/>
</svg>
