<svg width="24" height="24" viewBox="0 0 24 24" fill="none" xmlns="http://www.w3.org/2000/svg">
<path d="M12 8.25C10.9616 8.25 9.94661 8.55791 9.08326 9.13478C8.2199 9.71166 7.54699 10.5316 7.14963 11.4909C6.75227 12.4502 6.64831 13.5058 6.85088 14.5242C7.05345 15.5426 7.55347 16.4781 8.28769 17.2123C9.02191 17.9465 9.95737 18.4466 10.9758 18.6491C11.9942 18.8517 13.0498 18.7477 14.0091 18.3504C14.9684 17.953 15.7883 17.2801 16.3652 16.4167C16.9421 15.5534 17.25 14.5384 17.25 13.5C17.25 12.1076 16.6969 10.7723 15.7123 9.78769C14.7277 8.80312 13.3924 8.25 12 8.25ZM12 17.25C11.2583 17.25 10.5333 17.0301 9.91661 16.618C9.29993 16.206 8.81928 15.6203 8.53545 14.9351C8.25162 14.2498 8.17736 13.4958 8.32205 12.7684C8.46675 12.041 8.8239 11.3728 9.34835 10.8483C9.87279 10.3239 10.541 9.96675 11.2684 9.82205C11.9958 9.67736 12.7498 9.75162 13.4351 10.0355C14.1203 10.3193 14.7059 10.7999 15.118 11.4166C15.5301 12.0333 15.75 12.7583 15.75 13.5C15.75 13.9925 15.653 14.4801 15.4645 14.9351C15.2761 15.39 14.9999 15.8034 14.6516 16.1517C14.3034 16.4999 13.89 16.7761 13.4351 16.9645C12.9801 17.153 12.4925 17.25 12 17.25Z" fill="#3381F3"/>
<path d="M19.3125 5.99999H16.0275L14.955 3.46499C14.8978 3.32565 14.7999 3.20677 14.6742 3.12383C14.5484 3.04089 14.4006 2.99774 14.25 2.99999H9.75C9.60278 3.00011 9.45885 3.04356 9.33615 3.12491C9.21346 3.20627 9.11742 3.32193 9.06 3.45749L7.9725 5.99999H4.6875C3.84403 6.00196 3.03555 6.33739 2.43842 6.93312C1.84129 7.52884 1.50396 8.33653 1.5 9.18V17.805C1.5 18.6511 1.83558 19.4626 2.43314 20.0616C3.0307 20.6605 3.84143 20.998 4.6875 21H19.3125C20.1586 20.998 20.9693 20.6605 21.5669 20.0616C22.1644 19.4626 22.5 18.6511 22.5 17.805V9.18C22.496 8.33653 22.1587 7.52884 21.5616 6.93312C20.9644 6.33739 20.156 6.00196 19.3125 5.99999ZM21 17.805C21.001 18.0272 20.9581 18.2475 20.8737 18.4531C20.7893 18.6587 20.6652 18.8456 20.5084 19.0031C20.3516 19.1606 20.1652 19.2856 19.96 19.3708C19.7548 19.4561 19.5347 19.5 19.3125 19.5H4.6875C4.46526 19.5 4.24521 19.4561 4.03998 19.3708C3.83476 19.2856 3.6484 19.1606 3.4916 19.0031C3.3348 18.8456 3.21066 18.6587 3.12629 18.4531C3.04193 18.2475 2.99901 18.0272 3 17.805V9.18C3.00198 8.73374 3.18065 8.30644 3.4969 7.9916C3.81315 7.67675 4.24124 7.49999 4.6875 7.49999H8.4375C8.58472 7.49987 8.72865 7.45643 8.85135 7.37508C8.97404 7.29372 9.07008 7.17806 9.1275 7.04249L10.2375 4.49999H13.77L14.8425 7.02749C14.8999 7.16306 14.996 7.27872 15.1187 7.36007C15.2414 7.44143 15.3853 7.48487 15.5325 7.48499H19.2825C19.5072 7.481 19.7305 7.52194 19.9392 7.60542C20.1479 7.68891 20.3379 7.81325 20.4979 7.97114C20.6579 8.12904 20.7847 8.31731 20.8709 8.5249C20.9571 8.73249 21.001 8.95521 21 9.18V17.805Z" fill="#3381F3"/>
<path d="M19.5 8.25H17.25C17.0511 8.25 16.8603 8.32902 16.7197 8.46967C16.579 8.61032 16.5 8.80109 16.5 9C16.5 9.19891 16.579 9.38968 16.7197 9.53033C16.8603 9.67098 17.0511 9.75 17.25 9.75H19.5C19.6989 9.75 19.8897 9.67098 20.0303 9.53033C20.171 9.38968 20.25 9.19891 20.25 9C20.25 8.80109 20.171 8.61032 20.0303 8.46967C19.8897 8.32902 19.6989 8.25 19.5 8.25Z" fill="#3381F3"/>
</svg>
