<svg width="20" height="20" viewBox="0 0 20 20" fill="none" xmlns="http://www.w3.org/2000/svg">
<path d="M9.00677 2.668C7.84127 2.668 6.89702 3.61225 6.89702 4.77775C6.89702 5.94325 7.84127 6.8875 9.00677 6.8875C10.1723 6.8875 11.1165 5.94325 11.1165 4.77775C11.1158 3.61225 10.1723 2.668 9.00677 2.668ZM9.00677 5.4085C8.65802 5.4085 8.37527 5.12575 8.37527 4.777C8.37527 4.42825 8.65802 4.1455 9.00677 4.1455C9.35552 4.1455 9.63827 4.42825 9.63827 4.777C9.63827 5.12575 9.35552 5.4085 9.00677 5.4085ZM5.42477 5.77C4.25927 5.77 3.31502 6.71425 3.31502 7.87975C3.31502 9.04525 4.25927 9.9895 5.42477 9.9895C6.59027 9.9895 7.53452 9.04525 7.53452 7.87975C7.53452 6.71425 6.59027 5.77 5.42477 5.77ZM5.42477 8.51125C5.07602 8.51125 4.79327 8.2285 4.79327 7.87975C4.79327 7.531 5.07602 7.24825 5.42477 7.24825C5.77352 7.24825 6.05627 7.531 6.05627 7.87975C6.05627 8.2285 5.77352 8.51125 5.42477 8.51125ZM13.6095 4.43425C12.444 4.43425 11.4998 5.3785 11.4998 6.544C11.4998 7.7095 12.444 8.65375 13.6095 8.65375C14.775 8.65375 15.7193 7.7095 15.7193 6.544C15.7185 5.3785 14.7743 4.43425 13.6095 4.43425ZM13.6095 7.17475C13.2608 7.17475 12.978 6.892 12.978 6.54325C12.978 6.1945 13.2608 5.91175 13.6095 5.91175C13.9583 5.91175 14.241 6.1945 14.241 6.54325C14.2403 6.892 13.9575 7.17475 13.6095 7.17475ZM15.0713 9.02275C13.9058 9.02275 12.9615 9.967 12.9615 11.1325C12.9615 12.298 13.9058 13.2423 15.0713 13.2423C16.2368 13.2423 17.181 12.298 17.181 11.1325C17.1803 9.967 16.236 9.02275 15.0713 9.02275ZM15.0713 11.764C14.7225 11.764 14.4398 11.4813 14.4398 11.1325C14.4398 10.7838 14.7225 10.501 15.0713 10.501C15.42 10.501 15.7028 10.7838 15.7028 11.1325C15.7028 11.4813 15.42 11.764 15.0713 11.764ZM12.405 13.057C11.2395 13.057 10.2953 14.0013 10.2953 15.1668C10.2953 16.3323 11.2395 17.2765 12.405 17.2765C13.5705 17.2765 14.5148 16.3323 14.5148 15.1668C14.5148 14.0013 13.5705 13.057 12.405 13.057ZM12.405 15.7975C12.0563 15.7975 11.7735 15.5148 11.7735 15.166C11.7735 14.8173 12.0563 14.5345 12.405 14.5345C12.7538 14.5345 13.0365 14.8173 13.0365 15.166C13.0365 15.5155 12.7538 15.7975 12.405 15.7975ZM11.0048 19.7208C11.0048 19.7208 16.5113 20.1595 18.8963 13.6735C18.8963 13.6735 21.3638 6.57775 15.4013 2.17975C15.4013 2.17975 9.69902 -2.114 4.10027 2.1625C4.10027 2.1625 1.15502 4.507 0.578266 8.48875C0.578266 8.48875 0.0517654 11.5533 3.01052 12.3258C3.01052 12.3258 4.21202 12.625 5.66477 12.4848C5.66477 12.4848 7.70402 12.4263 7.50152 14.5578C7.50152 14.557 7.04027 19.1298 11.0048 19.7208ZM5.98052 2.668C9.20252 1.00825 12.126 2.18725 12.126 2.18725C16.845 3.562 17.688 8.21875 17.688 8.21875C18.3443 10.7733 17.4225 13.453 17.4225 13.453C16.7393 15.3903 15.2393 16.621 15.2393 16.621C13.0013 18.5433 11.1143 18.2275 11.1143 18.2275C8.62952 17.8398 9.01652 14.656 9.01652 14.656C9.12602 13.375 8.50052 12.406 8.50052 12.406C7.40702 10.7965 5.48627 10.9953 5.48627 10.9953H4.44077C3.45002 10.9953 2.76602 10.7455 2.40602 10.252C1.84727 9.48625 2.09027 8.179 2.24627 7.68775C3.18752 4.13275 5.98052 2.668 5.98052 2.668Z" fill="#3381F3"/>
</svg>
