<svg width="24" height="24" viewBox="0 0 24 24" fill="none" xmlns="http://www.w3.org/2000/svg">
<path d="M6.56712 9.90708L6.13561 9.6545L6.56712 9.90708ZM16.6829 9.90708L17.1144 9.6545V9.6545L16.6829 9.90708ZM16.6829 14.0929L16.2514 13.8403L16.2514 13.8403L16.6829 14.0929ZM6.56712 14.0929L6.99863 13.8403L6.56712 14.0929ZM6.99863 10.1597C9.07442 6.61344 14.1756 6.61344 16.2514 10.1597L17.1144 9.6545C14.6524 5.4485 8.5976 5.4485 6.13561 9.6545L6.99863 10.1597ZM16.2514 10.1597C16.9162 11.2955 16.9162 12.7045 16.2514 13.8403L17.1144 14.3455C17.9619 12.8977 17.9619 11.1023 17.1144 9.6545L16.2514 10.1597ZM16.2514 13.8403C14.1756 17.3866 9.07442 17.3866 6.99863 13.8403L6.13561 14.3455C8.5976 18.5515 14.6524 18.5515 17.1144 14.3455L16.2514 13.8403ZM6.99863 13.8403C6.33379 12.7045 6.33379 11.2955 6.99863 10.1597L6.13561 9.6545C5.28813 11.1023 5.28813 12.8977 6.13561 14.3455L6.99863 13.8403ZM13.3479 12.0379C13.3479 13.0162 12.569 13.7958 11.6246 13.7958V14.7958C13.1356 14.7958 14.3479 13.554 14.3479 12.0379H13.3479ZM11.6246 13.7958C10.6805 13.7958 9.90207 13.0164 9.90207 12.0379H8.90207C8.90207 13.5538 10.1135 14.7958 11.6246 14.7958V13.7958ZM9.90207 12.0379C9.90207 11.0587 10.6806 10.2794 11.6246 10.2794V9.27937C10.1134 9.27937 8.90207 10.5215 8.90207 12.0379H9.90207ZM11.6246 10.2794C12.5689 10.2794 13.3479 11.0589 13.3479 12.0379H14.3479C14.3479 10.5213 13.1357 9.27937 11.6246 9.27937V10.2794Z" fill="#363853"/>
</svg>
