<svg width="50" height="50" viewBox="0 0 50 50" fill="none" xmlns="http://www.w3.org/2000/svg">
<rect width="50" height="50" rx="15" fill="#3381F3" fill-opacity="0.1"/>
<circle cx="25" cy="41" r="2" fill="#3381F3"/>
<path d="M33.7972 24.7821C34.0676 24.51 34.0676 24.0687 33.7972 23.7966L28.0664 18.0282C27.48 17.4379 26.991 16.9456 26.5506 16.6074C26.0857 16.2504 25.5946 16 25 16C24.4054 16 23.9143 16.2504 23.4494 16.6074C23.009 16.9456 22.52 17.4379 21.9335 18.0282L16.2028 23.7966C15.9324 24.0687 15.9324 24.51 16.2028 24.7821C16.4731 25.0542 16.9115 25.0542 17.1818 24.7821L17.5785 24.3829V27.4332C17.5785 30.4273 19.6259 33.0276 22.522 33.7114C24.1519 34.0962 25.8481 34.0962 27.478 33.7114C30.374 33.0276 32.4215 30.4273 32.4215 27.4332V24.3829L32.8182 24.7821C33.0885 25.0542 33.5269 25.0542 33.7972 24.7821Z" fill="#3381F3"/>
</svg>
