<svg width="50" height="50" viewBox="0 0 50 50" fill="none" xmlns="http://www.w3.org/2000/svg">
<rect width="50" height="50" rx="15" fill="#3381F3" fill-opacity="0.1"/>
<circle cx="25" cy="41" r="2" fill="#3381F3"/>
<path fill-rule="evenodd" clip-rule="evenodd" d="M29.4735 19.5691C29.1393 17.9411 27.8994 16.6019 26.226 16.1593C25.4228 15.9469 24.5772 15.9469 23.774 16.1593C22.1006 16.6019 20.8607 17.9411 20.5265 19.5691C18.7394 20.0391 17.2906 21.3286 16.6298 23.0283C17.7825 23.4531 19.0738 23.7756 20.4369 23.9957V23.6861C20.4369 23.2931 20.7594 22.9746 21.1574 22.9746C21.5553 22.9746 21.8779 23.2931 21.8779 23.6861V24.1877C23.9249 24.405 26.0751 24.405 28.1221 24.1877V23.6861C28.1221 23.2931 28.4447 22.9746 28.8426 22.9746C29.2406 22.9746 29.5631 23.2931 29.5631 23.6861V23.9957C30.9262 23.7756 32.2175 23.4531 33.3702 23.0283C32.7094 21.3286 31.2606 20.0391 29.4735 19.5691ZM25.8531 17.5338C25.2942 17.3859 24.7058 17.3859 24.1469 17.5338C23.2243 17.7778 22.4954 18.4227 22.1316 19.248C24.0286 18.9109 25.9714 18.9109 27.8684 19.248C27.5046 18.4227 26.7757 17.7778 25.8531 17.5338Z" fill="#3381F3"/>
<path d="M28.1221 25.6182V27.0062C28.1221 27.3991 28.4447 27.7176 28.8426 27.7176C29.2406 27.7176 29.5631 27.3991 29.5631 27.0062V25.4361C31.0628 25.2072 32.4893 24.8618 33.7682 24.4C34.1214 25.9993 34.0702 27.6695 33.6203 29.2477C32.9834 31.4818 31.1227 33.1895 28.8115 33.6356C26.2943 34.1215 23.7057 34.1215 21.1885 33.6356C18.8773 33.1895 17.0166 31.4818 16.3797 29.2477C15.9298 27.6695 15.8786 25.9993 16.2318 24.4C17.5107 24.8618 18.9372 25.2072 20.4369 25.4361V27.0062C20.4369 27.3991 20.7594 27.7176 21.1574 27.7176C21.5553 27.7176 21.8779 27.3991 21.8779 27.0062V25.6182C23.9298 25.8254 26.0702 25.8254 28.1221 25.6182Z" fill="#3381F3"/>
</svg>
