<svg width="24" height="24" viewBox="0 0 24 24" fill="none" xmlns="http://www.w3.org/2000/svg">
<path d="M4.31367 14.7107L3.58349 14.882L4.31367 14.7107ZM4.31367 9.28927L3.58349 9.11799L4.31367 9.28927ZM19.6863 9.28928L18.9562 9.46055L19.6863 9.28928ZM19.6863 14.7107L18.9562 14.5394L19.6863 14.7107ZM14.7107 19.6863L14.5394 18.9562L14.7107 19.6863ZM9.28928 19.6863L9.46055 18.9562L9.28928 19.6863ZM9.28927 4.31367L9.46055 5.04385L9.28927 4.31367ZM14.7107 4.31367L14.5395 5.04385L14.7107 4.31367ZM10.7163 12.5358L11.4296 12.7677C11.5334 12.4484 11.4124 12.0991 11.1333 11.9124L10.7163 12.5358ZM10.0817 14.4882L9.36848 14.2564L10.0817 14.4882ZM13.2837 12.5358L12.8667 11.9124C12.5876 12.0991 12.4666 12.4484 12.5704 12.7677L13.2837 12.5358ZM13.9183 14.4882L13.205 14.7201L13.9183 14.4882ZM5.04385 14.5395C4.65205 12.8692 4.65205 11.1308 5.04385 9.46055L3.58349 9.11799C3.13884 11.0136 3.13884 12.9864 3.58349 14.882L5.04385 14.5395ZM18.9562 9.46055C19.3479 11.1308 19.3479 12.8692 18.9562 14.5394L20.4165 14.882C20.8612 12.9864 20.8612 11.0136 20.4165 9.118L18.9562 9.46055ZM14.5394 18.9562C12.8692 19.3479 11.1308 19.3479 9.46055 18.9562L9.118 20.4165C11.0136 20.8612 12.9864 20.8612 14.882 20.4165L14.5394 18.9562ZM9.46055 5.04385C11.1308 4.65205 12.8692 4.65205 14.5395 5.04385L14.882 3.58349C12.9864 3.13884 11.0136 3.13884 9.118 3.58349L9.46055 5.04385ZM9.46055 18.9562C7.26905 18.4421 5.55791 16.731 5.04385 14.5395L3.58349 14.882C4.22765 17.6282 6.37186 19.7724 9.118 20.4165L9.46055 18.9562ZM14.882 20.4165C17.6281 19.7724 19.7724 17.6281 20.4165 14.882L18.9562 14.5394C18.4421 16.731 16.731 18.4421 14.5394 18.9562L14.882 20.4165ZM14.5395 5.04385C16.731 5.55791 18.4421 7.26905 18.9562 9.46055L20.4165 9.118C19.7724 6.37186 17.6281 4.22764 14.882 3.58349L14.5395 5.04385ZM9.118 3.58349C6.37186 4.22764 4.22765 6.37185 3.58349 9.11799L5.04385 9.46055C5.55791 7.26905 7.26905 5.55791 9.46055 5.04385L9.118 3.58349ZM10.4383 10.613C10.4383 9.75046 11.1375 9.05125 12 9.05125V7.55125C10.3091 7.55125 8.93828 8.92203 8.93828 10.613H10.4383ZM12 9.05125C12.8625 9.05125 13.5617 9.75046 13.5617 10.613H15.0617C15.0617 8.92203 13.6909 7.55125 12 7.55125V9.05125ZM11.1333 11.9124C10.7127 11.6311 10.4383 11.1539 10.4383 10.613H8.93828C8.93828 11.6756 9.48024 12.6113 10.2994 13.1592L11.1333 11.9124ZM10.0031 12.304L9.36848 14.2564L10.795 14.7201L11.4296 12.7677L10.0031 12.304ZM10.9611 16.4487H13.0389V14.9487H10.9611V16.4487ZM13.5617 10.613C13.5617 11.1539 13.2873 11.6311 12.8667 11.9124L13.7006 13.1592C14.5198 12.6113 15.0617 11.6756 15.0617 10.613H13.5617ZM14.6315 14.2564L13.9969 12.304L12.5704 12.7677L13.205 14.7201L14.6315 14.2564ZM13.0389 16.4487C14.1767 16.4487 14.9832 15.3385 14.6315 14.2564L13.205 14.7201C13.2417 14.8329 13.1575 14.9487 13.0389 14.9487V16.4487ZM9.36848 14.2564C9.01676 15.3385 9.82334 16.4487 10.9611 16.4487V14.9487C10.8425 14.9487 10.7583 14.8329 10.795 14.7201L9.36848 14.2564Z" fill="#363853"/>
</svg>
