<svg width="18" height="18" viewBox="0 0 18 18" fill="none" xmlns="http://www.w3.org/2000/svg">
<path d="M12.1636 0C10.7409 0 9.5495 0.990366 9.24119 2.31931L0.818187 2.31931C0.366318 2.31931 5.31038e-06 2.68562 5.31038e-06 3.13749C5.31038e-06 3.58936 0.366318 3.95567 0.818187 3.95567L9.31907 3.95567C9.71813 5.14396 10.8409 6 12.1636 6C13.4864 6 14.6091 5.14396 15.0082 3.95567H17.1818C17.6337 3.95567 18 3.58936 18 3.13749C18 2.68562 17.6337 2.31931 17.1818 2.31931H15.0861C14.7778 0.990366 13.5864 0 12.1636 0Z" fill="#363853"/>
<path d="M4.52727 6C3.14741 6 1.98512 6.9316 1.63508 8.20016L0.796748 8.22213C0.345034 8.23397 -0.0115539 8.60976 0.000286536 9.06147C0.0121269 9.51319 0.387912 9.86977 0.839626 9.85793L1.64554 9.83681C2.00778 11.0865 3.16084 12 4.52727 12C5.88587 12 7.03353 11.0969 7.4027 9.85828H17.1818C17.6337 9.85828 18 9.49197 18 9.0401C18 8.58823 17.6337 8.22192 17.1818 8.22192H7.42539C7.08269 6.94227 5.91502 6 4.52727 6Z" fill="#363853"/>
<path d="M12.1636 12C10.8114 12 9.6681 12.8947 9.29343 14.1244H0.818187C0.366318 14.1244 5.83056e-06 14.4907 5.83056e-06 14.9426C5.83056e-06 15.3944 0.366318 15.7608 0.818187 15.7608H9.26094C9.5977 17.0492 10.7696 18 12.1636 18C13.5576 18 14.7296 17.0492 15.0663 15.7608H17.1818C17.6337 15.7608 18 15.3944 18 14.9426C18 14.4907 17.6337 14.1244 17.1818 14.1244H15.0338C14.6592 12.8947 13.5159 12 12.1636 12Z" fill="#363853"/>
</svg>
