<svg width="24" height="24" viewBox="0 0 24 24" fill="none" xmlns="http://www.w3.org/2000/svg">
<path fill-rule="evenodd" clip-rule="evenodd" d="M12.7045 3.69534C12.7045 3.31131 12.3891 3 12 3C11.6109 3 11.2955 3.31131 11.2955 3.69534V3.96878C10.875 4.01728 10.4588 4.1062 10.0537 4.2352C7.94323 4.90718 6.29399 6.59279 5.70994 8.71011L5.66783 8.86277C5.31888 10.1278 5.24259 11.4504 5.44311 12.7452C4.72265 13.2443 4.25 14.0715 4.25 15.0085C4.25 16.3231 5.18832 17.4558 6.49379 17.717L6.83911 17.7861C7.41503 17.9014 7.99392 17.9971 8.57478 18.0734C8.58018 18.0968 8.5858 18.1202 8.59164 18.1436L8.66864 18.4512C8.97314 19.6676 9.94054 20.6143 11.1756 20.9045C11.7176 21.0318 12.2824 21.0318 12.8244 20.9045C14.0595 20.6143 15.0269 19.6676 15.3314 18.4512L15.4084 18.1436C15.4142 18.1202 15.4198 18.0968 15.4252 18.0734C16.0061 17.9971 16.585 17.9014 17.1609 17.7861L17.5062 17.717C18.8117 17.4558 19.75 16.3231 19.75 15.0085C19.75 14.0717 19.2775 13.2447 18.5574 12.7455C18.7606 11.4623 18.6925 10.151 18.3568 8.89421L18.2982 8.67469C17.7401 6.58522 16.1478 4.91682 14.0679 4.24206C13.6236 4.09794 13.1661 4.00318 12.7045 3.95738V3.69534ZM11.502 19.5516C10.8172 19.3907 10.2733 18.8846 10.0672 18.2262C11.3539 18.321 12.6461 18.321 13.9328 18.2262C13.7267 18.8846 13.1828 19.3907 12.498 19.5516C12.1706 19.6286 11.8294 19.6286 11.502 19.5516Z" fill="#3381F3"/>
</svg>
