<svg width="20" height="20" viewBox="0 0 20 20" fill="none" xmlns="http://www.w3.org/2000/svg">
<path d="M15 1.66667C16.8383 1.66667 18.3333 3.16167 18.3333 5V15C18.3333 16.8383 16.8383 18.3333 15 18.3333H5C3.16167 18.3333 1.66667 16.8383 1.66667 15V5C1.66667 3.16167 3.16167 1.66667 5 1.66667H15ZM15 0H5C2.23833 0 0 2.23833 0 5V15C0 17.7617 2.23833 20 5 20H15C17.7617 20 20 17.7617 20 15V5C20 2.23833 17.7617 0 15 0Z" fill="#3381F3"/>
<path d="M7.70749 13.75C7.54916 13.75 7.38833 13.7042 7.24583 13.61L2.87083 10.6933C2.63916 10.5383 2.49999 10.2783 2.49999 10C2.49999 9.72167 2.63916 9.46167 2.87083 9.30667L7.24583 6.39C7.62833 6.13417 8.14583 6.2375 8.40166 6.62083C8.65666 7.00333 8.55333 7.52167 8.17083 7.77667L4.83583 10L8.17083 12.2233C8.55333 12.4792 8.65666 12.9958 8.40166 13.3792C8.24083 13.62 7.97666 13.75 7.70749 13.75Z" fill="#3381F3"/>
<path d="M12.2925 13.75C12.0233 13.75 11.7583 13.62 11.5983 13.3792C11.3425 12.9958 11.4458 12.4792 11.8291 12.2233L15.1641 10L11.8291 7.77667C11.4458 7.52167 11.3425 7.00417 11.5983 6.62083C11.8525 6.2375 12.37 6.13417 12.7541 6.39L17.1291 9.30667C17.3608 9.46167 17.5 9.72167 17.5 10C17.5 10.2783 17.3608 10.5383 17.1291 10.6933L12.7541 13.61C12.6116 13.7042 12.4508 13.75 12.2925 13.75Z" fill="#3381F3"/>
</svg>
