<svg width="50" height="50" viewBox="0 0 50 50" fill="none" xmlns="http://www.w3.org/2000/svg">
<rect width="50" height="50" rx="15" fill="#3381F3" fill-opacity="0.1"/>
<circle cx="25" cy="41" r="2" fill="#3381F3"/>
<path fill-rule="evenodd" clip-rule="evenodd" d="M20.4124 32.3041L20.5877 32.3996C22.1971 33.276 23.0019 33.7143 23.8552 33.886C24.6103 34.038 25.3897 34.038 26.1448 33.886C26.9981 33.7143 27.8029 33.2761 29.4123 32.3996L29.5877 32.3041C31.0869 31.4876 31.8365 31.0794 32.4005 30.5199C33.0429 29.8827 33.5141 29.1027 33.7728 28.2483C34 27.498 34 26.6654 34 25C34 23.3347 34 22.502 33.7728 21.7517C33.5141 20.8973 33.0429 20.1173 32.4005 19.4801C31.8365 18.9206 31.0869 18.5124 29.5877 17.6959L29.4124 17.6005C27.8029 16.724 26.9981 16.2857 26.1448 16.114C25.3897 15.962 24.6103 15.962 23.8552 16.114C23.0019 16.2857 22.1971 16.724 20.5876 17.6004L20.4124 17.6959C18.9131 18.5124 18.1635 18.9206 17.5995 19.4801C16.9571 20.1173 16.4859 20.8973 16.2272 21.7517C16 22.502 16 23.3346 16 25C16 26.6654 16 27.498 16.2272 28.2483C16.4859 29.1027 16.9571 29.8827 17.5995 30.5199C18.1635 31.0794 18.9131 31.4876 20.4124 32.3041ZM25 21.6236C23.0739 21.6236 21.5125 23.1353 21.5125 25C21.5125 26.8647 23.0739 28.3764 25 28.3764C26.9261 28.3764 28.4875 26.8647 28.4875 25C28.4875 23.1353 26.9261 21.6236 25 21.6236ZM22.8625 25C22.8625 23.8571 23.8195 22.9306 25 22.9306C26.1805 22.9306 27.1375 23.8571 27.1375 25C27.1375 26.1429 26.1805 27.0694 25 27.0694C23.8195 27.0694 22.8625 26.1429 22.8625 25Z" fill="#3381F3"/>
</svg>
