<svg width="20" height="20" viewBox="0 0 20 20" fill="none" xmlns="http://www.w3.org/2000/svg">
<path d="M14.1672 17.3995L13.7926 16.7498H13.7926L14.1672 17.3995ZM11.0812 18.886L10.9249 18.1525L11.0812 18.886ZM5.83278 17.3996L5.45814 18.0493L5.45814 18.0493L5.83278 17.3996ZM8.91878 18.886L9.07509 18.1525L8.91878 18.886ZM18.2855 13.2483L17.5644 13.042L18.2855 13.2483ZM14.3328 17.3041L14.7074 17.9538H14.7074L14.3328 17.3041ZM16.9894 15.5199L16.4462 15.0027L16.9894 15.5199ZM14.3328 2.69591L14.7074 2.04619L14.7074 2.04619L14.3328 2.69591ZM16.9894 4.4801L16.4462 4.99725L16.9894 4.4801ZM18.2855 6.75174L17.5644 6.95796L18.2855 6.75174ZM5.83278 2.60045L5.45814 1.95072L5.45814 1.95072L5.83278 2.60045ZM8.91878 1.11398L9.07509 1.84751L8.91878 1.11398ZM14.1672 2.60045L13.7926 3.25018L13.7926 3.25018L14.1672 2.60045ZM11.0812 1.11398L10.9249 1.84751L11.0812 1.11398ZM1.5 10H0.75H1.5ZM1.71455 6.75174L2.43564 6.95796L1.71455 6.75174ZM5.66722 2.69591L6.04186 3.34564L5.66722 2.69591ZM3.0106 4.4801L2.46741 3.96294L3.0106 4.4801ZM1.71455 13.2483L0.993457 13.4545L1.71455 13.2483ZM5.66722 17.3041L6.04186 16.6544L6.04186 16.6544L5.66722 17.3041ZM3.0106 15.5199L2.46741 16.0371L3.0106 15.5199ZM6.04186 3.34564L6.20742 3.25018L5.45814 1.95072L5.29258 2.04619L6.04186 3.34564ZM13.7926 3.25018L13.9581 3.34564L14.7074 2.04619L14.5419 1.95072L13.7926 3.25018ZM13.9581 16.6544L13.7926 16.7498L14.5419 18.0493L14.7074 17.9538L13.9581 16.6544ZM6.20743 16.7498L6.04186 16.6544L5.29258 17.9538L5.45814 18.0493L6.20743 16.7498ZM13.7926 16.7498C12.2287 17.6516 11.5875 18.0113 10.9249 18.1525L11.2375 19.6196C12.1867 19.4173 13.0656 18.9005 14.5419 18.0493L13.7926 16.7498ZM5.45814 18.0493C6.9344 18.9005 7.81328 19.4173 8.76247 19.6196L9.07509 18.1525C8.41251 18.0113 7.77132 17.6516 6.20742 16.7498L5.45814 18.0493ZM10.9249 18.1525C10.3148 18.2825 9.68523 18.2825 9.07509 18.1525L8.76247 19.6196C9.57871 19.7935 10.4213 19.7935 11.2375 19.6196L10.9249 18.1525ZM17.75 10C17.75 11.7102 17.7431 12.417 17.5644 13.042L19.0065 13.4545C19.2569 12.5791 19.25 11.6205 19.25 10H17.75ZM14.7074 17.9538C16.0839 17.1601 16.9075 16.6936 17.5326 16.0371L16.4462 15.0027C16.0059 15.4652 15.4136 15.8151 13.9581 16.6544L14.7074 17.9538ZM17.5644 13.042C17.353 13.7812 16.9685 14.4542 16.4462 15.0027L17.5326 16.0371C18.2237 15.3112 18.7292 14.4242 19.0065 13.4545L17.5644 13.042ZM13.9581 3.34564C15.4136 4.18489 16.0059 4.53478 16.4462 4.99725L17.5326 3.96294C16.9075 3.30643 16.0839 2.83986 14.7074 2.04619L13.9581 3.34564ZM19.25 10C19.25 8.37946 19.2569 7.42087 19.0065 6.54552L17.5644 6.95796C17.7431 7.58304 17.75 8.28981 17.75 10H19.25ZM16.4462 4.99725C16.9685 5.5458 17.353 6.21879 17.5644 6.95796L19.0065 6.54552C18.7292 5.57581 18.2237 4.68883 17.5326 3.96294L16.4462 4.99725ZM6.20742 3.25018C7.77132 2.34841 8.41251 1.9887 9.07509 1.84751L8.76247 0.380449C7.81328 0.582713 6.93439 1.0995 5.45814 1.95072L6.20742 3.25018ZM14.5419 1.95072C13.0656 1.0995 12.1867 0.582713 11.2375 0.380449L10.9249 1.84751C11.5875 1.9887 12.2287 2.34841 13.7926 3.25018L14.5419 1.95072ZM9.07509 1.84751C9.68523 1.7175 10.3148 1.7175 10.9249 1.84751L11.2375 0.380449C10.4213 0.206517 9.57871 0.206517 8.76247 0.380449L9.07509 1.84751ZM2.25 10C2.25 8.28981 2.25688 7.58304 2.43564 6.95796L0.993456 6.54552C0.743122 7.42087 0.75 8.37946 0.75 10H2.25ZM5.29258 2.04619C3.91614 2.83986 3.09246 3.30643 2.46741 3.96294L3.55378 4.99725C3.99409 4.53478 4.58638 4.18489 6.04186 3.34564L5.29258 2.04619ZM2.43564 6.95796C2.64703 6.21879 3.03152 5.5458 3.55378 4.99725L2.46741 3.96294C1.77631 4.68883 1.27078 5.57581 0.993456 6.54552L2.43564 6.95796ZM0.75 10C0.75 11.6205 0.743122 12.5791 0.993457 13.4545L2.43564 13.042C2.25688 12.417 2.25 11.7102 2.25 10H0.75ZM6.04186 16.6544C4.58638 15.8151 3.99409 15.4652 3.55378 15.0027L2.46741 16.0371C3.09247 16.6936 3.91614 17.1601 5.29258 17.9538L6.04186 16.6544ZM0.993457 13.4545C1.27078 14.4242 1.77631 15.3112 2.46741 16.0371L3.55378 15.0027C3.03152 14.4542 2.64703 13.7812 2.43564 13.042L0.993457 13.4545ZM10 11.9729C8.96462 11.9729 8.09375 11.1072 8.09375 10H6.59375C6.59375 11.9004 8.10137 13.4729 10 13.4729V11.9729ZM11.9062 10C11.9062 11.1072 11.0354 11.9729 10 11.9729V13.4729C11.8986 13.4729 13.4062 11.9004 13.4062 10H11.9062ZM10 8.0271C11.0354 8.0271 11.9062 8.89277 11.9062 10H13.4062C13.4062 8.0996 11.8986 6.5271 10 6.5271V8.0271ZM10 6.5271C8.10137 6.5271 6.59375 8.0996 6.59375 10H8.09375C8.09375 8.89277 8.96462 8.0271 10 8.0271V6.5271Z" fill="black" fill-opacity="0.4"/>
</svg>
