<svg width="24" height="24" viewBox="0 0 24 24" fill="none" xmlns="http://www.w3.org/2000/svg">
<path d="M5 18.3213C5 16.1763 6.50873 14.3493 8.55915 14.0112L8.74384 13.9808C10.3857 13.7101 12.0587 13.7101 13.7006 13.9808L13.8853 14.0112C15.9357 14.3493 17.4444 16.1763 17.4444 18.3213C17.4444 19.2484 16.7169 20 15.8194 20H6.625C5.72754 20 5 19.2484 5 18.3213Z" stroke="#363853" stroke-width="1.5"/>
<path d="M14.8519 7.5C14.8519 9.433 13.2268 11 11.2222 11C9.21765 11 7.59261 9.433 7.59261 7.5C7.59261 5.567 9.21765 4 11.2222 4C13.2268 4 14.8519 5.567 14.8519 7.5Z" stroke="#363853" stroke-width="1.5"/>
</svg>
